<svg width="25" height="25" viewBox="0 0 25 25" fill="none" xmlns="http://www.w3.org/2000/svg">
<path d="M18.1586 5.90907C17.1695 4.75923 16.6514 3.27364 16.6926 1.76116L12.9969 1.67188C12.9969 1.67188 12.9969 1.82956 12.9969 2.0422V16.8624C13.0485 21.5511 5.64064 21.4373 6.22672 16.2548C6.58504 14.1941 8.79928 12.926 10.7668 13.6428V9.87195C6.48328 9.12604 2.42392 12.5355 2.46664 16.879C2.84104 26.299 16.3521 26.3002 16.727 16.879C16.6326 16.5418 16.6854 10.2644 16.672 9.73492C18.3525 10.7806 20.3078 11.3033 22.288 11.2364V7.34188C20.4573 7.34188 19.0602 6.85515 18.1586 5.90907Z" fill="white"/>
</svg>
