<svg width="24" height="25" viewBox="0 0 24 25" fill="none" xmlns="http://www.w3.org/2000/svg">
<path fill-rule="evenodd" clip-rule="evenodd" d="M24 5.23996C23.1182 5.64155 22.1687 5.91313 21.1727 6.03447C22.1898 5.41042 22.9702 4.42089 23.3379 3.24213C22.3856 3.81995 21.3333 4.24032 20.2092 4.46567C19.3133 3.48481 18.0328 2.87231 16.6156 2.87231C13.8982 2.87231 11.6936 5.13306 11.6936 7.92107C11.6936 8.31688 11.7359 8.70114 11.8204 9.07094C7.72812 8.86004 4.10072 6.85209 1.67072 3.79395C1.2467 4.54223 1.00439 5.41042 1.00439 6.33494C1.00439 8.08575 1.87357 9.63144 3.19493 10.5372C2.38916 10.5126 1.62845 10.2829 0.963547 9.90735V9.96946C0.963547 12.4166 2.66103 14.4577 4.91495 14.92C4.5022 15.0384 4.06691 15.0977 3.61754 15.0977C3.30058 15.0977 2.99067 15.0673 2.69061 15.0081C3.31748 17.0132 5.1347 18.4736 7.29001 18.5126C5.6052 19.8676 3.48089 20.6751 1.17485 20.6751C0.777597 20.6751 0.384575 20.652 0 20.6058C2.17926 22.0359 4.76844 22.8723 7.54781 22.8723C16.6057 22.8723 21.5573 15.18 21.5573 8.50756C21.5573 8.28799 21.5531 8.06841 21.5446 7.85317C22.5068 7.141 23.3421 6.2526 24 5.23996Z" fill="white"/>
</svg>
