<svg width="25" height="25" viewBox="0 0 25 25" fill="none" xmlns="http://www.w3.org/2000/svg">
<g clip-path="url(#clip0_2619_2125)">
<path d="M13.9381 6.59898C13.9381 6.84461 13.9381 7.64519 13.9381 8.78256H17.8486L17.4246 12.2685H13.9381C13.9381 17.6445 13.9381 24.8486 13.9381 24.8486H9.31032C9.31032 24.8486 9.31032 17.7399 9.31032 12.2685H6.89893V8.78256H9.31032C9.31032 7.40012 9.31032 6.41711 9.31032 6.14341C9.31032 4.83934 9.21207 4.22059 9.76618 3.21006C10.3206 2.19958 11.8843 0.863921 14.589 0.896078C17.2943 0.929406 18.4346 1.18966 18.4346 1.18966L17.8486 4.90483C17.8486 4.90483 16.1211 4.44869 15.2732 4.61125C14.4264 4.77386 13.9381 5.29548 13.9381 6.59898Z" fill="white"/>
</g>
<defs>
<clipPath id="clip0_2619_2125">
<rect width="24" height="24" fill="white" transform="translate(0.666748 0.87207)"/>
</clipPath>
</defs>
</svg>
