<svg width="24" height="25" viewBox="0 0 24 25" fill="none" xmlns="http://www.w3.org/2000/svg">
<path d="M12 22.8721C9.85576 22.8721 8.31273 22.871 7.1097 22.7543C5.92045 22.639 5.1597 22.4175 4.55258 22.036C3.85868 21.6001 3.27192 21.0134 2.83591 20.3195C2.45455 19.7124 2.23288 18.9516 2.11773 17.7624C2.00106 16.5593 2 15.0163 2 12.8721C2 10.7278 2.00106 9.1848 2.11773 7.98177C2.23288 6.79252 2.45455 6.03177 2.83591 5.42465C3.2719 4.73073 3.85866 4.14397 4.55258 3.70798C5.1597 3.32662 5.92045 3.10495 7.1097 2.9898C8.31258 2.87313 9.85561 2.87207 12 2.87207C14.1442 2.87207 15.6873 2.87313 16.8903 2.9898C18.0795 3.10495 18.8403 3.32662 19.4474 3.70798C20.1413 4.14399 20.728 4.73075 21.1639 5.42465C21.5455 6.03177 21.767 6.79252 21.8823 7.98177C21.9989 9.1848 22 10.7278 22 12.8721C22 15.0163 21.9989 16.5593 21.8823 17.7624C21.767 18.9516 21.5455 19.7124 21.1639 20.3195C20.728 21.0133 20.1413 21.6 19.4474 22.036C18.8403 22.4175 18.0795 22.639 16.8903 22.7543C15.6873 22.871 14.1442 22.8721 12 22.8721Z" fill="white" stroke="white" stroke-width="2"/>
<path d="M12 17.8721C14.2091 17.8721 16 16.0812 16 13.8721C16 11.6629 14.2091 9.87207 12 9.87207C9.79086 9.87207 8 11.6629 8 13.8721C8 16.0812 9.79086 17.8721 12 17.8721Z" fill="white" stroke="black" stroke-width="2"/>
<path d="M16.875 9.12207C17.4963 9.12207 18 8.61839 18 7.99707C18 7.37575 17.4963 6.87207 16.875 6.87207C16.2537 6.87207 15.75 7.37575 15.75 7.99707C15.75 8.61839 16.2537 9.12207 16.875 9.12207Z" fill="black"/>
</svg>
